<?xml version="1.0" encoding="UTF-8" standalone="no"?>
<svg
   xmlns:dc="http://purl.org/dc/elements/1.1/"
   xmlns:cc="http://creativecommons.org/ns#"
   xmlns:rdf="http://www.w3.org/1999/02/22-rdf-syntax-ns#"
   xmlns:svg="http://www.w3.org/2000/svg"
   xmlns="http://www.w3.org/2000/svg"
   xmlns:sodipodi="http://sodipodi.sourceforge.net/DTD/sodipodi-0.dtd"
   xmlns:inkscape="http://www.inkscape.org/namespaces/inkscape"
   fill="rgb(29, 219, 227)"
   viewBox="0 0 66.072657 22.618326"
   version="1.1"
   id="svg4598"
   sodipodi:docname="logo.svg"
   inkscape:version="0.92.1 r">
  <metadata
     id="metadata4604">
    <rdf:RDF>
      <cc:Work
         rdf:about="">
        <dc:format>image/svg+xml</dc:format>
        <dc:type
           rdf:resource="http://purl.org/dc/dcmitype/StillImage" />
      </cc:Work>
    </rdf:RDF>
  </metadata>
  <defs
     id="defs4602" />
  <sodipodi:namedview
     pagecolor="#ffffff"
     bordercolor="#666666"
     borderopacity="1"
     objecttolerance="10"
     gridtolerance="10"
     guidetolerance="10"
     inkscape:pageopacity="0"
     inkscape:pageshadow="2"
     inkscape:window-width="1920"
     inkscape:window-height="1009"
     id="namedview4600"
     showgrid="false"
     inkscape:zoom="8.0906803"
     inkscape:cx="-5.298587"
     inkscape:cy="21.240084"
     inkscape:window-x="0"
     inkscape:window-y="29"
     inkscape:window-maximized="1"
     inkscape:current-layer="g4594" />
  <rect
     height="100%"
     width="100%"
     x="0"
     y="0"
     fill="none"
     id="rect4590" />
  <g
     id="g4596">
    <g
       transform="translate(-1.481088,16.545866)"
       style="display:inline;fill:#1ddbe3"
       id="g4594">
      <path
         d="m 8.251775,-0.211584 c 0,0.190426 0.12695,0.296218 0.275059,0.296218 0.148109,0 0.275059,-0.105792 0.275059,-0.296218 v -6.432153 c 0,-1.734988 -1.100237,-3.089126 -3.258393,-3.089126 -1.290662,0 -2.623641,0.909812 -3.512294,1.925415 v -1.58688 c 0,-0.190426 -0.12695,-0.296218 -0.275059,-0.296218 -0.148109,0 -0.275059,0.105792 -0.275059,0.296218 v 9.182744 c 0,0.190426 0.12695,0.296218 0.275059,0.296218 0.148109,0 0.275059,-0.105792 0.275059,-0.296218 v -6.72837 c 0.253901,-0.338534 1.734989,-2.24279 3.512294,-2.24279 0.4213614,0 0.7917257,0.057649 1.1123617,0.1638112 1.0801099,0.3576233 1.5959133,1.2657649 1.5959133,2.3751958 z m 6.293996,-9.521279 c -2.433216,0 -4.337472,2.242791 -4.337472,4.929907 0,2.687116 1.904256,4.929906 4.337472,4.929906 2.433215,0 4.35863,-2.24279 4.35863,-4.929906 0,-2.687116 -1.925415,-4.929907 -4.35863,-4.929907 z m 0,0.550119 c 2.073523,0 3.808511,1.925414 3.808511,4.379788 0,2.454374 -1.734988,4.379788 -3.808511,4.379788 -2.052365,0 -3.787353,-1.925414 -3.787353,-4.379788 0,-2.454374 1.734988,-4.379788 3.787353,-4.379788 z m 4.897542,-0.338535 c -0.04232,-0.12695 -0.148109,-0.169267 -0.253901,-0.169267 -0.169267,0 -0.359693,0.169267 -0.253901,0.380851 L 22.955607,0 c 0.06348,0.148109 0.148108,0.211584 0.2539,0.211584 0.105792,0 0.190426,-0.063475 0.253901,-0.211584 l 4.020096,-9.309695 c 0.105791,-0.211584 -0.08463,-0.380851 -0.253901,-0.380851 -0.105792,0 -0.211584,0.042317 -0.253901,0.169267 l -3.766195,8.71726 z m 15.794116,7.870924 c 0.232742,-0.296218 -0.211584,-0.634752 -0.444326,-0.338534 -0.719386,0.973286 -1.650355,1.565721 -2.792909,1.565721 -2.433215,0 -3.935462,-1.904256 -3.935462,-4.35863 h 7.384281 c 0.148109,0 0.275059,-0.12695 0.275059,-0.275059 0,-2.687116 -1.671513,-4.676006 -4.104729,-4.676006 -2.708275,0 -4.104729,2.602483 -4.104729,4.929907 0,2.687116 1.650355,4.929906 4.48558,4.929906 1.375296,0 2.454374,-0.698227 3.237235,-1.777305 z m -7.151538,-3.681561 c 0.190425,-1.861939 1.354137,-3.850828 3.533452,-3.850828 1.988889,0 3.42766,1.544563 3.533452,3.850828 z m 9.700498,-10.938891 c 0,-0.190426 -0.105792,-0.275059 -0.253901,-0.275059 -0.148109,0 -0.296217,0.08463 -0.296217,0.275059 v 13.604849 c 0,1.883097 1.015603,2.792908 1.988889,2.792908 0.380851,0 0.380851,-0.550118 0,-0.550118 -1.100237,-0.021158 -1.438771,-1.375296 -1.438771,-2.24279 z m 7.203807,8.484517 c 0.190426,0.338534 0.677069,0.105792 0.507802,-0.232742 -0.52896,-1.100237 -1.861939,-1.713831 -3.025651,-1.713831 -1.608038,0 -2.919859,1.163712 -2.919859,2.814067 0,3.914304 5.501183,2.285107 5.501183,4.824115 0,0.888652 -0.909811,1.671513 -2.539007,1.671513 -1.100237,0 -2.031206,-0.52896 -2.623642,-1.248345 -0.2539,-0.296218 -0.677068,0.063475 -0.444326,0.338534 0.719386,0.867494 1.967731,1.459929 3.067968,1.459929 1.734988,0 3.089126,-0.846335 3.089126,-2.221631 0,-3.17376 -5.480025,-1.375296 -5.480025,-4.824115 0,-1.31182 1.015603,-2.263948 2.348582,-2.263948 0.973286,0 1.988889,0.444326 2.517849,1.396454 z m 8.706053,7.574706 c 0,0.190426 0.126951,0.296218 0.27506,0.296218 0.148108,0 0.275059,-0.105792 0.275059,-0.296218 v -6.432153 c 0,-1.734988 -1.100237,-3.089126 -3.258393,-3.089126 -1.290663,0 -2.623642,0.909812 -3.512294,1.925415 v -8.463359 c 0,-0.380851 -0.550119,-0.380851 -0.550119,0 v 16.059223 c 0,0.190426 0.126951,0.296218 0.27506,0.296218 0.148108,0 0.275059,-0.105792 0.275059,-0.296218 v -6.72837 c 0.2539,-0.338534 1.734988,-2.24279 3.512294,-2.24279 1.84078,0 2.708274,1.100236 2.708274,2.539007 z m 3.141395,-9.203903 v 9.225061 c 0,0.190426 -0.12695,0.27506 -0.275059,0.27506 -0.148109,0 -0.275059,-0.084634 -0.275059,-0.27506 v -9.225061 c 0,-0.190425 0.12695,-0.275059 0.275059,-0.275059 0.148109,0 0.275059,0.084634 0.275059,0.275059 z m -0.275059,-3.639244 c -0.232742,0 -0.423168,0.190426 -0.423168,0.423168 0,0.211584 0.190426,0.40201 0.423168,0.40201 0.211584,0 0.40201,-0.190426 0.40201,-0.40201 0,-0.232742 -0.190426,-0.423168 -0.40201,-0.423168 z m 6.653689,3.321868 c -1.671513,0 -3.067967,1.036762 -3.808511,2.51785 v -2.200474 c 0,-0.190425 -0.126951,-0.275059 -0.27506,-0.275059 -0.148108,0 -0.275059,0.084634 -0.275059,0.275059 V 5.797401 c 0,0.190425 0.126951,0.275059 0.275059,0.275059 0.148109,0 0.27506,-0.084634 0.27506,-0.275059 v -8.209458 c 0.740544,1.523404 2.136998,2.539007 3.808511,2.539007 2.433216,0 4.337471,-2.24279 4.337471,-4.951064 0,-2.687117 -1.904255,-4.908749 -4.337471,-4.908749 z m 0,0.550119 c 2.052365,0 3.787353,1.904256 3.787353,4.35863 0,2.454374 -1.734988,4.379788 -3.787353,4.379788 -2.073523,0 -3.808511,-1.925414 -3.808511,-4.379788 0,-2.454374 1.734988,-4.35863 3.808511,-4.35863 z"
         id="path4592"
         inkscape:connector-curvature="0"
         sodipodi:nodetypes="ssssscsssssscsssssssssssssscsccsccscccccscsssssccsccssssscssccssssccsssscssssscssssscsssssssssssssssscsssasscssssssss"
         style="fill:#16204e;fill-opacity:1" />
      <path
         style="fill:none;fill-opacity:1;stroke-width:0.03089975"
         d="m 40.764518,16.667555 c -0.149603,-0.0121 -0.314583,-0.03685 -0.366621,-0.05499 -0.05204,-0.01814 -0.105963,-0.02597 -0.119831,-0.0174 -0.01387,0.0086 -0.03395,0.0015 -0.04462,-0.01582 -0.01067,-0.01727 -0.05948,-0.0314 -0.10846,-0.0314 -0.04898,0 -0.09779,-0.01413 -0.108461,-0.0314 -0.01067,-0.01727 -0.03296,-0.02303 -0.04953,-0.01279 -0.01656,0.01024 -0.04746,0.0042 -0.06865,-0.01337 -0.02119,-0.01759 -0.08185,-0.03961 -0.134788,-0.04894 -0.111458,-0.01964 -0.524246,-0.207588 -0.704613,-0.320827 -0.06798,-0.04268 -0.128341,-0.0743 -0.134138,-0.07028 -0.0058,0.004 -0.02969,-0.01794 -0.05309,-0.04881 -0.0234,-0.03087 -0.043,-0.04637 -0.04354,-0.03443 -5.41e-4,0.01194 -0.03778,-0.0124 -0.08274,-0.05407 -0.04497,-0.04168 -0.09711,-0.07592 -0.115874,-0.0761 -0.01876,-1.85e-4 -0.101803,-0.06275 -0.184536,-0.139049 -0.08273,-0.0763 -0.163506,-0.138719 -0.179497,-0.138719 -0.01599,0 -0.02145,-0.01233 -0.01214,-0.0274 0.02045,-0.03309 -0.05732,-0.103663 -0.0844,-0.07659 -0.01049,0.01049 -0.04882,-0.03134 -0.08518,-0.09297 -0.03636,-0.06162 -0.07864,-0.112044 -0.09396,-0.112044 -0.01532,0 -0.02785,-0.0197 -0.02785,-0.04377 0,-0.02408 -0.01564,-0.04899 -0.03476,-0.05536 -0.04629,-0.01543 -0.04428,-0.166255 0.0034,-0.255337 0.06513,-0.121695 0.247677,-0.175165 0.371598,-0.108844 0.03194,0.01709 0.180502,0.15344 0.330141,0.302994 0.269627,0.269473 0.557396,0.500221 0.623833,0.500221 0.01897,0 0.03448,0.01283 0.03448,0.0285 0,0.01568 0.04755,0.0442 0.105678,0.06338 0.05812,0.01918 0.122397,0.05502 0.142832,0.07965 0.02043,0.02462 0.06227,0.04477 0.09296,0.04477 0.0307,0 0.07418,0.01738 0.09664,0.03863 0.02246,0.02124 0.06693,0.04311 0.09882,0.0486 0.0319,0.0055 0.09447,0.02518 0.139049,0.04376 0.04458,0.01858 0.09033,0.03495 0.101657,0.03637 0.01133,0.0014 0.03103,0.01302 0.04378,0.02576 0.01275,0.01275 0.06721,0.02318 0.121024,0.02318 0.05382,0 0.107219,0.0094 0.118672,0.02082 0.01145,0.01145 0.05896,0.02593 0.105574,0.03218 0.137626,0.01844 1.129421,0.01805 1.202072,-4.67e-4 0.0367,-0.0094 0.134036,-0.02695 0.216299,-0.0391 0.153773,-0.02272 0.607934,-0.184326 0.789129,-0.280805 0.05612,-0.02988 0.112462,-0.05147 0.125208,-0.04797 0.01275,0.0035 0.02318,-0.0076 0.02318,-0.02455 0,-0.017 0.02086,-0.0309 0.04635,-0.0309 0.02549,0 0.04635,-0.0139 0.04635,-0.0309 0,-0.01699 0.01196,-0.0309 0.02658,-0.0309 0.07305,0 0.432256,-0.417309 0.492049,-0.571645 0.01975,-0.05099 0.05233,-0.134414 0.07239,-0.185399 0.05011,-0.12735 0.05482,-0.156782 0.06181,-0.386247 0.009,-0.294685 -0.09621,-0.615774 -0.261087,-0.797055 -0.178869,-0.19666 -0.250089,-0.268645 -0.268136,-0.271016 -0.03834,-0.005 -0.215928,-0.123986 -0.216103,-0.144744 -9.2e-5,-0.01275 -0.01488,-0.02318 -0.03283,-0.02318 -0.01795,0 -0.113053,-0.0399 -0.211344,-0.08867 -0.09829,-0.04877 -0.233084,-0.1062 -0.299539,-0.127627 -0.06646,-0.02143 -0.138546,-0.05303 -0.1602,-0.07023 -0.02165,-0.0172 -0.04775,-0.0229 -0.05799,-0.01266 -0.01024,0.01024 -0.05681,-0.0011 -0.103485,-0.02526 -0.04668,-0.02414 -0.09358,-0.03517 -0.104232,-0.02452 -0.01065,0.01065 -0.01937,0.0023 -0.01937,-0.01851 0,-0.02083 -0.01154,-0.03074 -0.02564,-0.02203 -0.02802,0.01732 -0.420578,-0.08859 -0.506959,-0.13677 -0.02951,-0.01646 -0.08136,-0.02993 -0.115226,-0.02993 -0.05254,0 -0.378543,-0.09161 -0.526364,-0.147923 -0.02549,-0.0097 -0.07043,-0.0202 -0.09987,-0.02332 -0.02943,-0.0031 -0.07243,-0.02136 -0.09554,-0.04054 -0.02311,-0.01918 -0.0486,-0.0283 -0.05663,-0.02027 -0.02204,0.02204 -0.694187,-0.243504 -0.750653,-0.296561 -0.01615,-0.01517 -0.04768,-0.02758 -0.07007,-0.02758 -0.0547,0 -0.512671,-0.285751 -0.630136,-0.393174 -0.245592,-0.224596 -0.483945,-0.509428 -0.541431,-0.64701 -0.02272,-0.05438 -0.05543,-0.107605 -0.07268,-0.118267 -0.01725,-0.01066 -0.03137,-0.04199 -0.03137,-0.06961 0,-0.02762 -0.0276,-0.107239 -0.06134,-0.17693 -0.109229,-0.225636 -0.162356,-0.564465 -0.162457,-1.0360923 -1.15e-4,-0.534234 0.07055,-0.8928706 0.237466,-1.2050903 0.04088,-0.076477 0.102706,-0.1981446 0.137383,-0.2703728 0.03468,-0.072228 0.07651,-0.1313239 0.09297,-0.1313239 0.01645,0 0.03822,-0.026158 0.04836,-0.058129 0.04431,-0.1396212 0.370806,-0.4636983 0.65006,-0.6452512 0.08497,-0.055245 0.175356,-0.114106 0.200848,-0.1308024 0.111373,-0.072945 0.347442,-0.1856683 0.414173,-0.1977689 0.04002,-0.00726 0.115567,-0.035329 0.167883,-0.062384 0.05232,-0.027054 0.140901,-0.055151 0.196854,-0.062437 0.05595,-0.00729 0.101733,-0.015979 0.101733,-0.019318 0,-0.00334 0.03476,-0.0108 0.07725,-0.016582 0.04249,-0.00578 0.125917,-0.017144 0.185399,-0.02525 0.139313,-0.018986 0.672015,-0.021826 0.772494,-0.00412 0.04249,0.00749 0.139821,0.021535 0.216298,0.031216 0.115596,0.014633 0.22067,0.035924 0.308997,0.062614 0.150698,0.045535 0.296884,0.089812 0.308998,0.093589 0.0085,0.00265 0.03631,0.012989 0.0618,0.022977 0.02549,0.00999 0.09849,0.034199 0.162224,0.053802 0.06373,0.019604 0.115874,0.04847 0.115874,0.064147 0,0.015677 0.02682,0.028503 0.05959,0.028503 0.03278,0 0.07976,0.020171 0.104416,0.044824 0.02465,0.024653 0.08127,0.05397 0.125806,0.065149 0.04454,0.011179 0.08098,0.032723 0.08098,0.047875 0,0.015153 0.02086,0.02755 0.04635,0.02755 0.02549,0 0.04635,0.012218 0.04635,0.027151 0,0.014933 0.04299,0.044958 0.09553,0.066721 0.132151,0.054738 0.67433,0.5971342 0.794179,0.7944956 0.05418,0.089223 0.09133,0.1622237 0.08255,0.1622237 -0.0088,0 0.0053,0.041024 0.03119,0.091165 0.114703,0.2218113 0.0011,0.4177384 -0.23912,0.4124546 -0.110455,-0.00243 -0.145616,-0.020514 -0.230255,-0.1184265 -0.05494,-0.063558 -0.09248,-0.1275597 -0.08341,-0.142227 0.0091,-0.014667 0.0018,-0.026668 -0.01624,-0.026668 -0.018,0 -0.03272,-0.013905 -0.03272,-0.0309 0,-0.016995 -0.02433,-0.056528 -0.05407,-0.087852 C 43.31654,8.4875333 43.243539,8.4014338 43.184057,8.3275248 43.055404,8.167668 42.966087,8.0814134 42.929209,8.0814134 c -0.01479,0 -0.0183,-0.013905 -0.0078,-0.0309 0.0105,-0.016995 -5.5e-4,-0.0309 -0.02456,-0.0309 -0.02401,0 -0.08117,-0.034762 -0.127015,-0.077249 -0.04584,-0.042487 -0.09654,-0.077249 -0.112661,-0.077249 -0.01612,0 -0.02931,-0.010511 -0.02931,-0.023357 0,-0.012846 -0.04519,-0.042576 -0.100424,-0.066067 -0.05523,-0.023491 -0.14881,-0.071708 -0.207948,-0.1071505 -0.05914,-0.035442 -0.135012,-0.068635 -0.168608,-0.073762 -0.03359,-0.00513 -0.07056,-0.024657 -0.08214,-0.0434 -0.01158,-0.018743 -0.03652,-0.024524 -0.05542,-0.012846 -0.0189,0.011678 -0.03435,0.00535 -0.03435,-0.014066 0,-0.019414 -0.01738,-0.029066 -0.03862,-0.021449 -0.02124,0.00762 -0.06469,4.094e-4 -0.09654,-0.016017 -0.03185,-0.016427 -0.08747,-0.033825 -0.123599,-0.038663 -0.03613,-0.00484 -0.128256,-0.017681 -0.204733,-0.02854 -0.316713,-0.04497 -0.646405,-0.065508 -0.722956,-0.045035 -0.04494,0.012018 -0.147465,0.028303 -0.227843,0.036189 -0.264185,0.02592 -0.832393,0.2540703 -0.982426,0.3944695 -0.03509,0.032832 -0.07201,0.059695 -0.08205,0.059695 -0.02614,0 -0.366077,0.3466133 -0.450561,0.4594068 -0.08235,0.1099446 -0.28424,0.5357294 -0.28424,0.5994594 0,0.023774 -0.0096,0.052778 -0.02123,0.064454 -0.01168,0.011676 -0.02471,0.04528 -0.02896,0.074674 -0.0042,0.029395 -0.01621,0.09516 -0.02657,0.1461443 -0.02161,0.1063113 -0.01985,0.7574301 0.0024,0.8960931 0.02244,0.139709 0.03756,0.215434 0.04472,0.224023 0.0035,0.0042 0.0094,0.01815 0.01297,0.0309 0.0036,0.01275 0.01443,0.04403 0.02407,0.06952 0.0096,0.02549 0.02804,0.07416 0.04086,0.10815 0.01283,0.03399 0.02111,0.07223 0.01842,0.08497 -0.0027,0.01275 0.0056,0.02318 0.01845,0.02318 0.01285,0 0.04275,0.0438 0.06645,0.09735 0.0237,0.05354 0.06533,0.120975 0.09252,0.149855 0.108819,0.115602 0.17152,0.202137 0.163985,0.226317 -0.0044,0.01401 0.0056,0.0171 0.02218,0.0069 0.01656,-0.01024 0.04493,0.0091 0.06303,0.04289 0.0181,0.03383 0.09875,0.106406 0.179223,0.161291 0.08047,0.05489 0.150946,0.111029 0.156611,0.124764 0.0057,0.01374 0.03,0.02497 0.05407,0.02497 0.02408,0 0.04378,0.01391 0.04378,0.0309 0,0.01699 0.02472,0.0309 0.05492,0.0309 0.03021,0 0.08235,0.0187 0.115874,0.04155 0.08162,0.05564 0.783495,0.352224 0.880335,0.371996 0.150123,0.03065 0.665464,0.181008 0.765276,0.223277 0.05581,0.02364 0.133688,0.04297 0.173062,0.04297 0.06339,0 0.188038,0.03215 0.32801,0.08461 0.02549,0.0096 0.06879,0.02186 0.09621,0.02734 0.02742,0.0055 0.09,0.02656 0.139049,0.04684 0.04905,0.02028 0.09614,0.03863 0.104637,0.04078 0.09045,0.02287 0.270816,0.09306 0.301272,0.117231 0.02124,0.01686 0.03863,0.02164 0.03863,0.01063 0,-0.01101 0.04157,0.0015 0.09237,0.02774 0.05081,0.02627 0.096,0.04443 0.100425,0.04034 0.0044,-0.0041 0.0741,0.03802 0.154822,0.09356 0.08073,0.05554 0.146774,0.09269 0.146774,0.08256 0,-0.01013 0.06605,0.026 0.146774,0.08029 0.210335,0.141462 0.533341,0.485231 0.554276,0.589904 0.0097,0.04847 0.02995,0.09574 0.045,0.105051 0.0401,0.02478 0.119072,0.225707 0.138195,0.351606 0.0091,0.06002 0.02879,0.164754 0.04371,0.232733 0.02729,0.124339 0.01938,0.520617 -0.01327,0.664345 -0.0097,0.04249 -0.02616,0.116938 -0.03668,0.165446 -0.02101,0.09683 -0.134069,0.366183 -0.164019,0.390749 -0.01036,0.0085 -0.03962,0.0557 -0.06503,0.104895 -0.05091,0.09859 -0.349538,0.410723 -0.5416,0.566099 -0.236433,0.191271 -0.844419,0.461661 -1.157948,0.514974 -0.04249,0.0072 -0.112011,0.02129 -0.154498,0.03126 -0.169413,0.03974 -0.275396,0.05239 -0.571646,0.06822 -0.169948,0.0091 -0.322902,0.01963 -0.339897,0.02343 -0.017,0.0038 -0.153303,-0.003 -0.302906,-0.01508 z"
         id="path5151"
         inkscape:connector-curvature="0"
         transform="translate(1.481088,-16.545866)" />
      <path
         style="fill:#ef7dff;fill-opacity:0;stroke-width:0.03089975;stroke:none;stroke-opacity:1"
         d="m 40.764518,16.667555 c -0.149603,-0.0121 -0.314583,-0.03685 -0.366621,-0.05499 -0.05204,-0.01814 -0.105963,-0.02597 -0.119831,-0.0174 -0.01387,0.0086 -0.03395,0.0015 -0.04462,-0.01582 -0.01067,-0.01727 -0.05948,-0.0314 -0.10846,-0.0314 -0.04898,0 -0.09779,-0.01413 -0.108461,-0.0314 -0.01067,-0.01727 -0.03296,-0.02303 -0.04953,-0.01279 -0.01656,0.01024 -0.04746,0.0042 -0.06865,-0.01337 -0.02119,-0.01759 -0.08185,-0.03961 -0.134788,-0.04894 -0.111458,-0.01964 -0.524246,-0.207588 -0.704613,-0.320827 -0.06798,-0.04268 -0.128341,-0.0743 -0.134138,-0.07028 -0.0058,0.004 -0.02969,-0.01794 -0.05309,-0.04881 -0.0234,-0.03087 -0.043,-0.04637 -0.04354,-0.03443 -5.41e-4,0.01194 -0.03778,-0.0124 -0.08274,-0.05407 -0.04497,-0.04168 -0.09711,-0.07592 -0.115874,-0.0761 -0.01876,-1.85e-4 -0.101803,-0.06275 -0.184536,-0.139049 -0.08273,-0.0763 -0.163506,-0.138719 -0.179497,-0.138719 -0.01599,0 -0.02145,-0.01233 -0.01214,-0.0274 0.02045,-0.03309 -0.05732,-0.103663 -0.0844,-0.07659 -0.01049,0.01049 -0.04882,-0.03134 -0.08518,-0.09297 -0.03636,-0.06162 -0.07864,-0.112044 -0.09396,-0.112044 -0.01532,0 -0.02785,-0.0197 -0.02785,-0.04377 0,-0.02408 -0.01564,-0.04899 -0.03476,-0.05536 -0.04629,-0.01543 -0.04428,-0.166255 0.0034,-0.255337 0.06513,-0.121695 0.247677,-0.175165 0.371598,-0.108844 0.03194,0.01709 0.180502,0.15344 0.330141,0.302994 0.269627,0.269473 0.557396,0.500221 0.623833,0.500221 0.01897,0 0.03448,0.01283 0.03448,0.0285 0,0.01568 0.04755,0.0442 0.105678,0.06338 0.05812,0.01918 0.122397,0.05502 0.142832,0.07965 0.02043,0.02462 0.06227,0.04477 0.09296,0.04477 0.0307,0 0.07418,0.01738 0.09664,0.03863 0.02246,0.02124 0.06693,0.04311 0.09882,0.0486 0.0319,0.0055 0.09447,0.02518 0.139049,0.04376 0.04458,0.01858 0.09033,0.03495 0.101657,0.03637 0.01133,0.0014 0.03103,0.01302 0.04378,0.02576 0.01275,0.01275 0.06721,0.02318 0.121024,0.02318 0.05382,0 0.107219,0.0094 0.118672,0.02082 0.01145,0.01145 0.05896,0.02593 0.105574,0.03218 0.137626,0.01844 1.129421,0.01805 1.202072,-4.67e-4 0.0367,-0.0094 0.134036,-0.02695 0.216299,-0.0391 0.153773,-0.02272 0.607934,-0.184326 0.789129,-0.280805 0.05612,-0.02988 0.112462,-0.05147 0.125208,-0.04797 0.01275,0.0035 0.02318,-0.0076 0.02318,-0.02455 0,-0.017 0.02086,-0.0309 0.04635,-0.0309 0.02549,0 0.04635,-0.0139 0.04635,-0.0309 0,-0.01699 0.01196,-0.0309 0.02658,-0.0309 0.07305,0 0.432256,-0.417309 0.492049,-0.571645 0.01975,-0.05099 0.05233,-0.134414 0.07239,-0.185399 0.05011,-0.12735 0.05482,-0.156782 0.06181,-0.386247 0.009,-0.294685 -0.09621,-0.615774 -0.261087,-0.797055 -0.178869,-0.19666 -0.250089,-0.268645 -0.268136,-0.271016 -0.03834,-0.005 -0.215928,-0.123986 -0.216103,-0.144744 -9.2e-5,-0.01275 -0.01488,-0.02318 -0.03283,-0.02318 -0.01795,0 -0.113053,-0.0399 -0.211344,-0.08867 -0.09829,-0.04877 -0.233084,-0.1062 -0.299539,-0.127627 -0.06646,-0.02143 -0.138546,-0.05303 -0.1602,-0.07023 -0.02165,-0.0172 -0.04775,-0.0229 -0.05799,-0.01266 -0.01024,0.01024 -0.05681,-0.0011 -0.103485,-0.02526 -0.04668,-0.02414 -0.09358,-0.03517 -0.104232,-0.02452 -0.01065,0.01065 -0.01937,0.0023 -0.01937,-0.01851 0,-0.02083 -0.01154,-0.03074 -0.02564,-0.02203 -0.02802,0.01732 -0.420578,-0.08859 -0.506959,-0.13677 -0.02951,-0.01646 -0.08136,-0.02993 -0.115226,-0.02993 -0.05254,0 -0.378543,-0.09161 -0.526364,-0.147923 -0.02549,-0.0097 -0.07043,-0.0202 -0.09987,-0.02332 -0.02943,-0.0031 -0.07243,-0.02136 -0.09554,-0.04054 -0.02311,-0.01918 -0.0486,-0.0283 -0.05663,-0.02027 -0.02204,0.02204 -0.694187,-0.243504 -0.750653,-0.296561 -0.01615,-0.01517 -0.04768,-0.02758 -0.07007,-0.02758 -0.0547,0 -0.512671,-0.285751 -0.630136,-0.393174 -0.245592,-0.224596 -0.483945,-0.509428 -0.541431,-0.64701 -0.02272,-0.05438 -0.05543,-0.107605 -0.07268,-0.118267 -0.01725,-0.01066 -0.03137,-0.04199 -0.03137,-0.06961 0,-0.02762 -0.0276,-0.107239 -0.06134,-0.17693 -0.109229,-0.225636 -0.162356,-0.564465 -0.162457,-1.0360923 -1.15e-4,-0.534234 0.07055,-0.8928706 0.237466,-1.2050903 0.04088,-0.076477 0.102706,-0.1981446 0.137383,-0.2703728 0.03468,-0.072228 0.07651,-0.1313239 0.09297,-0.1313239 0.01645,0 0.03822,-0.026158 0.04836,-0.058129 0.04431,-0.1396212 0.370806,-0.4636983 0.65006,-0.6452512 0.08497,-0.055245 0.175356,-0.114106 0.200848,-0.1308024 0.111373,-0.072945 0.347442,-0.1856683 0.414173,-0.1977689 0.04002,-0.00726 0.115567,-0.035329 0.167883,-0.062384 0.05232,-0.027054 0.140901,-0.055151 0.196854,-0.062437 0.05595,-0.00729 0.101733,-0.015979 0.101733,-0.019318 0,-0.00334 0.03476,-0.0108 0.07725,-0.016582 0.04249,-0.00578 0.125917,-0.017144 0.185399,-0.02525 0.139313,-0.018986 0.672015,-0.021826 0.772494,-0.00412 0.04249,0.00749 0.139821,0.021535 0.216298,0.031216 0.115596,0.014633 0.22067,0.035924 0.308997,0.062614 0.150698,0.045535 0.296884,0.089812 0.308998,0.093589 0.0085,0.00265 0.03631,0.012989 0.0618,0.022977 0.02549,0.00999 0.09849,0.034199 0.162224,0.053802 0.06373,0.019604 0.115874,0.04847 0.115874,0.064147 0,0.015677 0.02682,0.028503 0.05959,0.028503 0.03278,0 0.07976,0.020171 0.104416,0.044824 0.02465,0.024653 0.08127,0.05397 0.125806,0.065149 0.04454,0.011179 0.08098,0.032723 0.08098,0.047875 0,0.015153 0.02086,0.02755 0.04635,0.02755 0.02549,0 0.04635,0.012218 0.04635,0.027151 0,0.014933 0.04299,0.044958 0.09553,0.066721 0.132151,0.054738 0.67433,0.5971342 0.794179,0.7944956 0.05418,0.089223 0.09133,0.1622237 0.08255,0.1622237 -0.0088,0 0.0053,0.041024 0.03119,0.091165 0.114703,0.2218113 0.0011,0.4177384 -0.23912,0.4124546 -0.110455,-0.00243 -0.145616,-0.020514 -0.230255,-0.1184265 -0.05494,-0.063558 -0.09248,-0.1275597 -0.08341,-0.142227 0.0091,-0.014667 0.0018,-0.026668 -0.01624,-0.026668 -0.018,0 -0.03272,-0.013905 -0.03272,-0.0309 0,-0.016995 -0.02433,-0.056528 -0.05407,-0.087852 C 43.31654,8.4875333 43.243539,8.4014338 43.184057,8.3275248 43.055404,8.167668 42.966087,8.0814134 42.929209,8.0814134 c -0.01479,0 -0.0183,-0.013905 -0.0078,-0.0309 0.0105,-0.016995 -5.5e-4,-0.0309 -0.02456,-0.0309 -0.02401,0 -0.08117,-0.034762 -0.127015,-0.077249 -0.04584,-0.042487 -0.09654,-0.077249 -0.112661,-0.077249 -0.01612,0 -0.02931,-0.010511 -0.02931,-0.023357 0,-0.012846 -0.04519,-0.042576 -0.100424,-0.066067 -0.05523,-0.023491 -0.14881,-0.071708 -0.207948,-0.1071505 -0.05914,-0.035442 -0.135012,-0.068635 -0.168608,-0.073762 -0.03359,-0.00513 -0.07056,-0.024657 -0.08214,-0.0434 -0.01158,-0.018743 -0.03652,-0.024524 -0.05542,-0.012846 -0.0189,0.011678 -0.03435,0.00535 -0.03435,-0.014066 0,-0.019414 -0.01738,-0.029066 -0.03862,-0.021449 -0.02124,0.00762 -0.06469,4.094e-4 -0.09654,-0.016017 -0.03185,-0.016427 -0.08747,-0.033825 -0.123599,-0.038663 -0.03613,-0.00484 -0.128256,-0.017681 -0.204733,-0.02854 -0.316713,-0.04497 -0.646405,-0.065508 -0.722956,-0.045035 -0.04494,0.012018 -0.147465,0.028303 -0.227843,0.036189 -0.264185,0.02592 -0.832393,0.2540703 -0.982426,0.3944695 -0.03509,0.032832 -0.07201,0.059695 -0.08205,0.059695 -0.02614,0 -0.366077,0.3466133 -0.450561,0.4594068 -0.08235,0.1099446 -0.28424,0.5357294 -0.28424,0.5994594 0,0.023774 -0.0096,0.052778 -0.02123,0.064454 -0.01168,0.011676 -0.02471,0.04528 -0.02896,0.074674 -0.0042,0.029395 -0.01621,0.09516 -0.02657,0.1461443 -0.02161,0.1063113 -0.01985,0.7574301 0.0024,0.8960931 0.02244,0.139709 0.03756,0.215434 0.04472,0.224023 0.0035,0.0042 0.0094,0.01815 0.01297,0.0309 0.0036,0.01275 0.01443,0.04403 0.02407,0.06952 0.0096,0.02549 0.02804,0.07416 0.04086,0.10815 0.01283,0.03399 0.02111,0.07223 0.01842,0.08497 -0.0027,0.01275 0.0056,0.02318 0.01845,0.02318 0.01285,0 0.04275,0.0438 0.06645,0.09735 0.0237,0.05354 0.06533,0.120975 0.09252,0.149855 0.108819,0.115602 0.17152,0.202137 0.163985,0.226317 -0.0044,0.01401 0.0056,0.0171 0.02218,0.0069 0.01656,-0.01024 0.04493,0.0091 0.06303,0.04289 0.0181,0.03383 0.09875,0.106406 0.179223,0.161291 0.08047,0.05489 0.150946,0.111029 0.156611,0.124764 0.0057,0.01374 0.03,0.02497 0.05407,0.02497 0.02408,0 0.04378,0.01391 0.04378,0.0309 0,0.01699 0.02472,0.0309 0.05492,0.0309 0.03021,0 0.08235,0.0187 0.115874,0.04155 0.08162,0.05564 0.783495,0.352224 0.880335,0.371996 0.150123,0.03065 0.665464,0.181008 0.765276,0.223277 0.05581,0.02364 0.133688,0.04297 0.173062,0.04297 0.06339,0 0.188038,0.03215 0.32801,0.08461 0.02549,0.0096 0.06879,0.02186 0.09621,0.02734 0.02742,0.0055 0.09,0.02656 0.139049,0.04684 0.04905,0.02028 0.09614,0.03863 0.104637,0.04078 0.09045,0.02287 0.270816,0.09306 0.301272,0.117231 0.02124,0.01686 0.03863,0.02164 0.03863,0.01063 0,-0.01101 0.04157,0.0015 0.09237,0.02774 0.05081,0.02627 0.096,0.04443 0.100425,0.04034 0.0044,-0.0041 0.0741,0.03802 0.154822,0.09356 0.08073,0.05554 0.146774,0.09269 0.146774,0.08256 0,-0.01013 0.06605,0.026 0.146774,0.08029 0.210335,0.141462 0.533341,0.485231 0.554276,0.589904 0.0097,0.04847 0.02995,0.09574 0.045,0.105051 0.0401,0.02478 0.119072,0.225707 0.138195,0.351606 0.0091,0.06002 0.02879,0.164754 0.04371,0.232733 0.02729,0.124339 0.01938,0.520617 -0.01327,0.664345 -0.0097,0.04249 -0.02616,0.116938 -0.03668,0.165446 -0.02101,0.09683 -0.134069,0.366183 -0.164019,0.390749 -0.01036,0.0085 -0.03962,0.0557 -0.06503,0.104895 -0.05091,0.09859 -0.349538,0.410723 -0.5416,0.566099 -0.236433,0.191271 -0.844419,0.461661 -1.157948,0.514974 -0.04249,0.0072 -0.112011,0.02129 -0.154498,0.03126 -0.169413,0.03974 -0.275396,0.05239 -0.571646,0.06822 -0.169948,0.0091 -0.322902,0.01963 -0.339897,0.02343 -0.017,0.0038 -0.153303,-0.003 -0.302906,-0.01508 z"
         id="path5153"
         inkscape:connector-curvature="0"
         transform="translate(1.481088,-16.545866)" />
    </g>
  </g>
</svg>
