<?xml version="1.0" encoding="UTF-8" standalone="no"?>
<svg
   xmlns:dc="http://purl.org/dc/elements/1.1/"
   xmlns:cc="http://creativecommons.org/ns#"
   xmlns:rdf="http://www.w3.org/1999/02/22-rdf-syntax-ns#"
   xmlns:svg="http://www.w3.org/2000/svg"
   xmlns="http://www.w3.org/2000/svg"
   xmlns:sodipodi="http://sodipodi.sourceforge.net/DTD/sodipodi-0.dtd"
   xmlns:inkscape="http://www.inkscape.org/namespaces/inkscape"
   fill="rgb(29, 219, 227)"
   viewBox="0 0 24.912000000000003 33.407999999999994"
   version="1.1"
   id="svg5190"
   sodipodi:docname="monogram.svg"
   inkscape:version="0.92.1 r">
  <metadata
     id="metadata5196">
    <rdf:RDF>
      <cc:Work
         rdf:about="">
        <dc:format>image/svg+xml</dc:format>
        <dc:type
           rdf:resource="http://purl.org/dc/dcmitype/StillImage" />
      </cc:Work>
    </rdf:RDF>
  </metadata>
  <defs
     id="defs5194" />
  <sodipodi:namedview
     pagecolor="#ffffff"
     bordercolor="#666666"
     borderopacity="1"
     objecttolerance="10"
     gridtolerance="10"
     guidetolerance="10"
     inkscape:pageopacity="0"
     inkscape:pageshadow="2"
     inkscape:window-width="1920"
     inkscape:window-height="1009"
     id="namedview5192"
     showgrid="false"
     inkscape:zoom="7.064176"
     inkscape:cx="-6.796068"
     inkscape:cy="16.704"
     inkscape:window-x="0"
     inkscape:window-y="29"
     inkscape:window-maximized="1"
     inkscape:current-layer="svg5190" />
  <rect
     height="100%"
     width="100%"
     x="0"
     y="0"
     fill="none"
     id="rect5182" />
  <g
     id="g5188"
     style="stroke:none;stroke-opacity:1;fill:#16204e;fill-opacity:1">
    <g
       fill="rgb(29, 219, 227)"
       transform="translate(-5.04 33.12) scale(1)"
       style="cursor:pointer;stroke:none;stroke-opacity:1;fill:#16204e;fill-opacity:1"
       id="g5186">
      <path
         d="M28.080000-0.720000C28.080000-0.072000 28.512000 0.288000 29.016000 0.288000C29.520000 0.288000 29.952000-0.072000 29.952000-0.720000L29.952000-22.608000C29.952000-28.512000 26.208000-33.120000 18.864000-33.120000C14.472000-33.120000 9.936000-30.024000 6.912000-26.568000L6.912000-31.968000C6.912000-32.616000 6.480000-32.976000 5.976000-32.976000C5.472000-32.976000 5.040000-32.616000 5.040000-31.968000L5.040000-0.720000C5.040000-0.072000 5.472000 0.288000 5.976000 0.288000C6.480000 0.288000 6.912000-0.072000 6.912000-0.720000L6.912000-23.616000C7.776000-24.768000 12.816000-31.248000 18.864000-31.248000C25.128000-31.248000 28.080000-27.504000 28.080000-22.608000L28.080000-0.720000Z"
         id="path5184"
         style="stroke:none;stroke-opacity:1;fill:#16204e;fill-opacity:1" />
    </g>
  </g>
</svg>
